<?xml version="1.0" encoding="utf-8"?>
<!-- Generator: Adobe Illustrator 16.0.4, SVG Export Plug-In . SVG Version: 6.00 Build 0)  -->
<!DOCTYPE svg PUBLIC "-//W3C//DTD SVG 1.1//EN" "http://www.w3.org/Graphics/SVG/1.1/DTD/svg11.dtd">
<svg version="1.1" id="Layer_1" xmlns="http://www.w3.org/2000/svg" xmlns:xlink="http://www.w3.org/1999/xlink" x="0px" y="0px"
	 width="32px" height="19.132px" viewBox="0 0 32 19.132" enable-background="new 0 0 32 19.132" xml:space="preserve">
<g>
	<path d="M29.45,6.249C23.183-1.178,12.083-2.119,4.655,4.147c-0.758,0.64-1.461,1.343-2.102,2.102L0.165,9.085
		c-0.219,0.262-0.219,0.643,0,0.904l2.301,2.773c6.2,7.482,17.292,8.522,24.774,2.322c0.845-0.7,1.622-1.477,2.322-2.322
		l2.273-2.773c0.219-0.261,0.219-0.643,0-0.904L29.45,6.249z M28.461,11.879c-5.707,6.882-15.912,7.835-22.793,2.128
		c-0.774-0.642-1.486-1.354-2.128-2.128L1.614,9.557l2.013-2.386c5.765-6.833,15.978-7.7,22.811-1.935
		c0.699,0.589,1.346,1.237,1.936,1.935l2.013,2.386L28.461,11.879z"/>
	<path d="M16,3.279c-3.471,0-6.285,2.813-6.285,6.285s2.814,6.285,6.285,6.285s6.285-2.814,6.285-6.285
		C22.281,6.095,19.47,3.283,16,3.279z M16,14.441c-2.694,0-4.877-2.184-4.877-4.877c0-2.693,2.184-4.877,4.877-4.877
		s4.877,2.184,4.877,4.877C20.874,12.256,18.692,14.438,16,14.441z"/>
</g>
</svg>
